# xmcd
#
# Track frame offsets:
# 150
# 30063
# 83662
# 108402
# 188218
# 231684
# 259483
# 284666
# 314234
#
# Disc length: 4584 seconds
#
#
# Revision: 0
# Processed by: cddbd v1.5.1PL2 Copyright (c) Steve Scherf et al.
# Submitted via: FreeRIP 2.944 
#
DISCID=8311e609
DTITLE=Derek and the dominos - Live at the fillmore - complete two nights edition cd 3
DYEAR=1970
DGENRE=blues
TTITLE0=key to the higway
TTITLE1=tell the truth
TTITLE2=nobody knows when you're down and out
TTITLE3=let it rain
TTITLE4=why does love got to be so sad
TTITLE5=presence of the lord
TTITLE6=bottle of red wine
TTITLE7=roll it over
TTITLE8=little wing
EXTD=
EXTT0=
EXTT1=
EXTT2=
EXTT3=
EXTT4=
EXTT5=
EXTT6=
EXTT7=
EXTT8=
PLAYORDER=
